<?xml version="1.0" encoding="utf-8"?>
<!-- Generator: Adobe Illustrator 19.1.0, SVG Export Plug-In . SVG Version: 6.00 Build 0)  -->
<svg version="1.0" id="Layer_1" xmlns="http://www.w3.org/2000/svg" xmlns:xlink="http://www.w3.org/1999/xlink" x="0px" y="0px"
	 viewBox="0 0 33 33" style="enable-background:new 0 0 33 33;" xml:space="preserve">
<style type="text/css">
	.st0{fill:#C29C70;}
</style>
<g>
	<path class="st0" d="M19.6,14.6h-2.2V13c0-0.5,0.5-0.6,0.8-0.6c0.2,0,1.4,0,1.4,0v-2.2l-1.6,0c-2.2,0-2.8,1.6-2.8,2.7v1.8h-1.6v2.3
		h1.6c0,2.9,0,6.1,0,6.1h2.2c0,0,0-3.2,0-6.1h1.9L19.6,14.6z"/>
	<g>
		<path class="st0" d="M16.5,1.5c8.3,0,15,6.7,15,15s-6.7,15-15,15s-15-6.7-15-15S8.2,1.5,16.5,1.5 M16.5,0C7.4,0,0,7.4,0,16.5
			C0,25.6,7.4,33,16.5,33C25.6,33,33,25.6,33,16.5C33,7.4,25.6,0,16.5,0L16.5,0z"/>
	</g>
</g>
</svg>
