<?xml version="1.0" encoding="utf-8"?>
<!-- Generator: Adobe Illustrator 19.1.0, SVG Export Plug-In . SVG Version: 6.00 Build 0)  -->
<svg version="1.0" id="Layer_1" xmlns="http://www.w3.org/2000/svg" xmlns:xlink="http://www.w3.org/1999/xlink" x="0px" y="0px"
	 viewBox="0 0 33 33" style="enable-background:new 0 0 33 33;" xml:space="preserve">
<style type="text/css">
	.st0{fill:#C29C70;}
</style>
<g>
	<path class="st0" d="M23.2,12.2c-0.2,0.1-0.9,0.4-1.5,0.4c0.4-0.2,1-1,1.1-1.5c-0.4,0.3-1.2,0.6-1.6,0.6c0,0,0,0,0,0
		c-0.5-0.5-1.2-0.9-1.9-0.9c-1.5,0-2.6,1.3-2.6,2.8c0,0.2,0,0.4,0.1,0.6h0c-2-0.1-4.3-1.1-5.6-2.9c-0.8,1.5-0.1,3.2,0.8,3.8
		c-0.3,0-0.9,0-1.2-0.3c0,1,0.4,2.3,2,2.8c-0.3,0.2-0.9,0.1-1.1,0.1c0.1,0.8,1.2,1.9,2.4,1.9c-0.4,0.5-1.9,1.5-3.7,1.2
		c1.2,0.8,2.6,1.3,4.1,1.3c4.3,0,7.6-3.7,7.4-8.3c0,0,0,0,0,0c0,0,0,0,0,0c0,0,0,0,0,0C22.3,13.4,22.9,12.9,23.2,12.2z"/>
	<g>
		<path class="st0" d="M16.5,1.5c8.3,0,15,6.7,15,15s-6.7,15-15,15s-15-6.7-15-15S8.2,1.5,16.5,1.5 M16.5,0C7.4,0,0,7.4,0,16.5
			C0,25.6,7.4,33,16.5,33C25.6,33,33,25.6,33,16.5C33,7.4,25.6,0,16.5,0L16.5,0z"/>
	</g>
</g>
</svg>
